<?xml version="1.0" encoding="utf-8"?>
<!-- Generator: Adobe Illustrator 26.0.2, SVG Export Plug-In . SVG Version: 6.00 Build 0)  -->
<svg version="1.1" id="Layer_1" xmlns="http://www.w3.org/2000/svg" xmlns:xlink="http://www.w3.org/1999/xlink" x="0px" y="0px"
	 viewBox="0 0 256 256" style="enable-background:new 0 0 256 256;" xml:space="preserve">
<g id="Frame_32">
	<g id="Group">
		<g id="Group_42">
			<path id="Vector" d="M148,170c-3.5,0.8-40.1,4.1-44,7c-6.4,5-8.5,14.2-9,24.5c-0.2,8.3,0.4,11.4,2.3,11.4c1.7,0,2.9-1.9,3.1-4.1
				c0.2-2.3-0.4-3.7-1.7-3.1c-1,0.8-1.9,0.4-1.9-0.8c0-1,0.6-2.3,1.7-2.7c0.8-0.4,2.9-3.3,4.6-6.8c1.9-3.3,5-6.6,7.2-7
				s5.2-2.3,6.6-4.3c6.6-9.3,50.3,4.3,50.3,15.7c0,1.9,0.8,2.7,1.7,2.1c1-0.6,1.2,1.9,0.8,5.4c-0.8,4.8-0.2,6,1.9,5.4
				c1.7-0.6,3.5-4.6,4.1-8.9c1.2-7.9,0.8-8.9-9.1-17C166.7,186.6,160.6,167.3,148,170z"/>
		</g>
	</g>
</g>
<path d="M132,121"/>
<path d="M136,136c-16.8,8.9-33.6,17.8-50.5,26.7C102.4,153.8,119.2,144.9,136,136z"/>
<path d="M160.7,191.3c6.4,9.3,0,0-11.7-12.3"/>
</svg>
