<?xml version="1.0" encoding="utf-8"?>
<!-- Generator: Adobe Illustrator 26.0.2, SVG Export Plug-In . SVG Version: 6.00 Build 0)  -->
<svg version="1.1" id="Layer_1" xmlns="http://www.w3.org/2000/svg" xmlns:xlink="http://www.w3.org/1999/xlink" x="0px" y="0px"
	 viewBox="0 0 250 250" style="enable-background:new 0 0 250 250;" xml:space="preserve">
<style type="text/css">
	.st0{fill:#231F20;}
</style>
<g>
	<g>
		<path class="st0" d="M90.78,191.13c-1.79,1.07-3.81,2.92-2.52,5.19c0.76,1.34,2.35,1.8,3.59,2.55c0.13,0.08,0.94,0.65,0.56,0.35
			c0.18,0.14,0.34,0.3,0.51,0.45c0.03,0.02,0.52,0.59,0.22,0.21c0.69,0.9,0.44,1.78,1.38,2.72c0.91,0.91,2.26,0.92,3.46,0.84
			c2.14-0.13,4.56-0.32,6.61-1.01c2.89-0.97,2.16-4.97-0.86-5c-1.67-0.02-3.4,0.32-5.04,0.52c-1.36,0.17-3.24,0.05-4.27,1.1
			c-0.87,0.88-0.88,2.08-0.54,3.19c0.54,1.74,1.61,3.42,2.62,4.91c0.48,0.71,0.98,1.46,1.58,2.07c0.85,0.88,1.63,1.04,2.83,1.2
			c0.45,0.06,0.91,0.15,1.35,0.27c0.18,0.05,0.34,0.11,0.52,0.16c-0.65-0.2-0.33-0.16-0.16-0.05c0.52,0.34,1.11,0.57,1.75,0.57
			c0.72,0,1.33-0.32,1.94-0.66c1.08-0.6,2.16-1.21,3.27-1.76c2.62-1.29,5.53-2.37,8.48-2.4c1.23-0.01,2.45,0.15,3.61,0.61
			c1.31,0.52,2.35,1.51,3.55,2.2c1.99,1.13,4.29,1.83,6.59,1.73c2.89-0.12,5.57-1.3,7.86-3.02c1.49-1.12,2.84-2.39,4.06-3.79
			c0.26-0.3,0.51-0.6,0.76-0.9c0.3-0.37,0.93-0.79,0.19-0.4c-0.41,0.21-0.31,0.21-0.79,0.21c-0.49-0.08-0.6-0.1-0.34-0.04
			c0.18,0.06,0.15,0.04-0.07-0.04c-0.06-0.03-0.12-0.05-0.18-0.08c0.08,0.04,0.17,0.08,0.25,0.13c0-0.03,0.81,0.64,0.14,0.07
			c0.28,0.24,0.55,0.49,0.81,0.75c0.33,0.34,0.64,0.71,0.95,1.07c0.09,0.11,0.18,0.22,0.26,0.33c-0.36-0.45,0.19,0.26,0.24,0.34
			c0.48,0.67,0.94,1.36,1.35,2.08c0.14,0.24,0.25,0.52,0.4,0.76c0.25,0.38-0.2-0.59-0.09-0.21c0.02,0.05,0.03,0.1,0.05,0.15
			c-0.19-0.79,0.02-1.51,0.62-2.19c0.37-0.21,0.74-0.43,1.1-0.64c-0.02,0,1.96,0.3,1.71,0.18c0.03,0.01,0.41,0.4,0.32,0.25
			c-0.18-0.34-0.81-0.73-1.11-1c-0.81-0.75-1.61-1.52-2.37-2.31c-1.01-1.05-1.76-1.86-2.41-2.91c-0.12-0.19-0.22-0.4-0.33-0.59
			c-0.16-0.26,0,0.41-0.05-0.13c-0.04-0.44,0-0.05-0.01,0.18c0.03-0.47-0.13,0.35-0.15,0.39c-0.19,0.44-0.53,0.72-0.94,0.86
			c0.43-0.15,0.08,0.03-0.18-0.01c0.16,0.02,0.36,0,0.52-0.01c0.62-0.03-0.26-0.09,0.09,0c0.2,0.05,0.4,0.08,0.6,0.12
			c0.49,0.12,0.96,0.27,1.43,0.43c0.25,0.09,0.49,0.18,0.73,0.28c0.37,0.15-0.32-0.14,0.06,0.02c0.11,0.05,0.22,0.1,0.34,0.15
			c0.63,0.29,1.26,0.6,1.87,0.93c2.51,1.36,4.7,3.06,6.94,4.81c1.41,1.11,3.29,2.82,5.26,2.28c2.06-0.57,2.27-2.72,1.74-4.43
			c-0.31-1.01-0.59-2.13-0.98-3.1c-0.14-0.36,0.06,0.69,0.03,0.23c-0.01-0.1-0.02-0.21-0.01-0.31c0.05-0.37-0.16,0.72-0.04,0.32
			c0.08-0.26-0.3,0.63-0.17,0.4c0.11-0.2,0.22-0.19-0.25,0.31c-0.24,0.25-0.81,0.43-1.04,0.46c0.11-0.01,0.6,0.03,0.12-0.02
			c-0.48-0.05,0.15,0.05,0.3,0.09c0.2,0.05,0.39,0.12,0.59,0.19c0.13,0.04,0.25,0.09,0.38,0.14c-0.04-0.02-0.36-0.16-0.08-0.03
			c0.66,0.29,1.3,0.7,1.99,0.91c1.31,0.41,2.78,0.09,3.5-1.17c1.25-2.19-0.97-4.69-2.25-6.29c-1.69-2.12-3.62-4.07-5.78-5.71
			c-1.11-0.85-2.26-1.41-3.55-1.96c-2.12-0.91-4.29-1.73-6.58-2.12c-4.61-0.79-8.94,0.63-13.39,1.66
			c-3.96,0.92-7.93,1.83-11.94,2.53c-2.71,0.48-5.46,0.9-8.24,0.68c-0.3-0.02,0.13,0.02,0.16,0.03c-0.12-0.02-0.25-0.04-0.37-0.07
			c-0.2-0.05-0.39-0.11-0.59-0.15c-0.52-0.11,0.2,0.19-0.04-0.01c-0.48-0.42,0.22,0.23-0.03,0c0.14,0.13,0.25,0.38,0.26,0.57
			c-0.01-0.52-0.19,0.38-0.01-0.01c0.08-0.17,0.25-0.76,0.05-0.27c0.86-2.01,2.6-4.13,0.57-6.16c-1.54-1.53-4.03-1.15-5.93-0.77
			c-5.2,1.02-10.32,3.29-15.07,5.59c-0.94,0.45-1.86,0.93-2.77,1.44c-2.8,1.59-0.28,5.91,2.52,4.32c3.18-1.8,6.32-3.13,9.6-4.37
			c1.81-0.68,3.65-1.32,5.53-1.81c0.69-0.18,1.39-0.33,2.1-0.46c0.64-0.11-0.55,0.03,0.06-0.01c0.11-0.01,0.22-0.02,0.33-0.03
			c0.29-0.02,0.59,0.03,0.87,0c-0.62,0.05-0.48-0.1-0.2-0.01c0.4,0.13-0.52-0.29-0.28-0.13c-0.23-0.16-0.65-0.7-0.73-0.96
			c-0.08-0.24,0.02-1.11-0.08-0.62c0.15-0.72,0.2-0.34,0.09-0.22c-0.15,0.15-0.28,0.47-0.39,0.65c-0.86,1.46-1.58,3.21-1.11,4.93
			c1.01,3.71,5.76,3.73,8.83,3.5c5.46-0.42,10.87-1.71,16.2-2.92c3.11-0.71,6.27-1.72,9.43-2.17c2.99-0.43,6.1,0.62,8.82,1.76
			c1.99,0.83,3.02,1.53,4.41,2.81c1.37,1.26,2.64,2.63,3.8,4.09c0.48,0.61-0.26-0.37,0.17,0.22c0.08,0.11,0.17,0.23,0.25,0.34
			c0.19,0.28,0.39,0.56,0.56,0.85c0.06,0.1,0.11,0.25,0.19,0.34c0.31,0.36-0.17-0.54-0.06-0.15c0.02,0.06,0.04,0.12,0.05,0.18
			c-0.33-1.27,0.39-2.19,2.17-2.77c0.53,0.09,0.66,0.11,0.4,0.04c-0.12-0.02-0.49-0.21,0.23,0.11c-0.22-0.09-0.42-0.21-0.64-0.32
			c-0.48-0.23-0.98-0.45-1.48-0.65c-0.59-0.24-1.17-0.44-1.8-0.55c-1.58-0.27-3.26,0.07-4.13,1.56c-0.62,1.06-0.55,2.3-0.29,3.45
			c0.18,0.81,0.48,1.58,0.75,2.36c0.11,0.31,0.19,0.63,0.3,0.93c0.09,0.27,0.03,0.74,0-0.22c0,0.06,0.01,0.12,0.01,0.18
			c0.02-0.44,0.07-0.66,0.29-1.04c0.55-0.94,1.56-1.21,2.41-1.04c-0.57-0.11,0.42,0.33,0.07,0.03c-0.48-0.39-1.08-0.68-1.57-1.05
			c-0.05-0.04-0.35-0.28-0.06-0.04c-0.21-0.17-0.42-0.34-0.63-0.51c-0.4-0.33-0.8-0.66-1.21-0.98c-0.98-0.78-1.99-1.53-3.03-2.22
			c-3-2-6.53-3.99-10.18-4.37c-1.34-0.14-2.78,0.11-3.75,1.13c-1.29,1.35-1.06,3.2-0.35,4.76c0.81,1.76,2.22,3.29,3.54,4.68
			c1.02,1.07,2.1,2.09,3.2,3.08c0.74,0.67,1.48,1.32,2.55,1.32c1.42-0.01,2.55-1.19,2.57-2.59c0.01-0.73-0.29-1.38-0.6-2.01
			c-0.57-1.17-1.32-2.25-2.09-3.29c-1.71-2.28-5.29-6.45-8.33-3.57c-0.93,0.88-1.66,2-2.57,2.93c-0.96,0.98-1.99,1.89-3.15,2.62
			c-1.75,1.09-3.3,1.6-5.24,1.41c0.39,0.04-0.17-0.03-0.26-0.05c-0.22-0.05-0.44-0.09-0.65-0.15c-0.26-0.07-0.52-0.15-0.77-0.25
			c-0.02-0.01-0.43-0.17-0.17-0.06c-1.09-0.47-2.01-1.19-2.99-1.85c-2.47-1.64-5.54-2.32-8.48-2.13c-3.05,0.2-5.92,1.12-8.7,2.35
			c-1.32,0.58-2.6,1.24-3.85,1.94c-0.31,0.17-0.63,0.35-0.94,0.53c-0.48,0.29-0.44,0.17-0.01,0.06c0.56-0.14,0.9,0.06,1.41,0.11
			c0.33,0.03,0.32,0.17,0.16,0.05c-0.12-0.09-0.26-0.15-0.39-0.21c-0.86-0.43-1.77-0.64-2.72-0.79c-0.26-0.04-1.3-0.01-1.41-0.19
			c0.24,0.08,0.47,0.17,0.71,0.25c-0.13-0.09-0.1-0.06,0.1,0.08c0.2-0.07,0.18,0.28-0.02-0.06c-0.07-0.13-0.23-0.26-0.32-0.37
			c0.4,0.47-0.25-0.35-0.35-0.49c-0.27-0.4-0.54-0.8-0.79-1.21c-0.42-0.68-0.82-1.38-1.18-2.09c-0.1-0.2-0.43-1.09-0.23-0.45
			c-0.02-0.05-0.17-0.36-0.14-0.41c-0.01-0.04-0.02-0.08-0.03-0.11c0.18,0.73-0.02,1.4-0.6,2.02c-0.37,0.21-0.74,0.43-1.1,0.64
			c-0.34,0.11,0.25-0.04,0.33-0.05c0.29-0.04,0.58-0.08,0.87-0.11c0.51-0.07,1.03-0.13,1.54-0.19c0.81-0.1,1.61-0.2,2.42-0.28
			c0.45-0.05,0.9-0.1,1.35-0.12c0.64-0.03,0.48,0.11-0.05-0.08c-0.37-0.21-0.74-0.43-1.1-0.64c0,0,0.01,0.01,0.01,0.01
			c-0.24-0.59-0.49-1.18-0.73-1.77c0,0,0,0.01,0,0.01c0.24-0.59,0.49-1.18,0.73-1.77c0.15-0.19,1.08-0.56,0.92-0.56
			c-0.09,0-0.19,0.06-0.27,0.07c-0.28,0.05-0.56,0.12-0.84,0.18c-0.77,0.15-1.54,0.26-2.32,0.37c-0.12,0.02,0.55-0.06-0.07,0.01
			c-0.21,0.02-0.43,0.05-0.64,0.07c-0.39,0.04-0.79,0.08-1.18,0.1c-0.31,0.02-0.63-0.01-0.93,0.02c-0.53,0.05,0.54,0.12,0.27,0.05
			c-0.6-0.16,1.14,0.88,0.86,0.52c0.21,0.37,0.43,0.74,0.64,1.1c-0.53-1.36-0.92-2.55-1.91-3.67c-0.77-0.87-1.74-1.56-2.75-2.13
			c-0.38-0.21-0.76-0.4-1.15-0.6c-0.14-0.07-0.28-0.15-0.41-0.22c-0.31-0.15-0.45-0.48-0.03,0.04c-0.43-0.53,0.36,0.71,0.37,0.74
			c0.2,0.75-0.11,1.33-0.38,1.73c0.07-0.11,0.49-0.41,0.03-0.06c0.27-0.2,0.56-0.37,0.85-0.55
			C96.07,193.79,93.56,189.47,90.78,191.13L90.78,191.13z"/>
	</g>
</g>
</svg>
