<?xml version="1.0" encoding="utf-8"?>
<!-- Generator: Adobe Illustrator 26.0.2, SVG Export Plug-In . SVG Version: 6.00 Build 0)  -->
<svg version="1.1" id="Layer_1" xmlns="http://www.w3.org/2000/svg" xmlns:xlink="http://www.w3.org/1999/xlink" x="0px" y="0px"
	 viewBox="0 0 250 250" style="enable-background:new 0 0 250 250;" xml:space="preserve">
<style type="text/css">
	.st0{fill:#FFFFFF;stroke:#231F20;stroke-miterlimit:10;}
	.st1{fill:#231F20;}
</style>
<path class="st0" d="M119.26,163.69"/>
<g>
	<g>
		<path class="st1" d="M121.93,135.01c3.08,1.11,4.66-3.58,2.05-5.08c-3.16-1.8-4.52,2.26-5.26,4.42c-0.83,2.41-1.48,5.02-1.33,7.58
			c0.15,2.54,1.03,4.84,1.82,7.23c1.4,4.21,1.17,8.53-1.37,12.27c-2.43,3.59-6.07,7.04-4.42,11.81c1.88,5.43,8.48,6.87,12.7,3.18
			c1.02-0.89,0.91-2.63,0-3.54c-1.01-1.01-2.52-0.89-3.54,0c-0.89,0.78-2.37,0.94-3.36,0.24c-1.26-0.88-1.44-2.46-0.88-3.79
			c0.7-1.65,2.07-3.04,3.13-4.46c1.32-1.76,2.32-3.71,2.93-5.83c1.29-4.45,0.51-8.61-0.96-12.89c-0.71-2.05-1.28-4.04-1.02-6.24
			c0.14-1.14,0.46-2.26,0.8-3.35c0.19-0.61,0.4-1.21,0.62-1.8c0.06-0.15,0.5-1.06,0.31-0.9c-0.37,0.21-0.74,0.43-1.1,0.64
			c0.08-0.02,0.16-0.04,0.25-0.06c-0.64-0.08-1.28-0.17-1.93-0.25c0.05,0.02,0.09,0.04,0.14,0.06c-0.3-0.3-0.6-0.6-0.9-0.9
			c0.02,0.05,0.04,0.09,0.07,0.14c-0.11-0.42-0.23-0.84-0.34-1.26c0.01-0.12,0.03-0.24,0.04-0.36c0.21-0.37,0.43-0.74,0.64-1.1
			c-0.03,0.02-0.06,0.05-0.09,0.07c0.81-0.21,1.62-0.43,2.43-0.64c-0.04-0.01-0.08-0.03-0.12-0.04c-1.27-0.46-2.74,0.52-3.08,1.75
			C119.8,133.33,120.65,134.55,121.93,135.01L121.93,135.01z"/>
	</g>
</g>
<g>
	<g>
		<path class="st1" d="M135.95,160.15c0.75,0.38,1.48,0.79,2.19,1.25c0.18,0.12,0.37,0.25,0.54,0.37c0.16,0.11,0.38,0.3,0.1,0.07
			c0.34,0.27,0.66,0.56,0.97,0.87c0.15,0.15,0.29,0.31,0.44,0.47c0.36,0.38-0.18-0.31,0.13,0.16c0.22,0.32,0.42,0.64,0.6,0.99
			c0.1,0.21,0.15,0.41,0.04,0.08c0.06,0.2,0.13,0.39,0.19,0.59c0.04,0.15,0.12,0.39,0.11,0.55c0.04-0.64-0.03-0.08-0.03,0.07
			c0,0.19-0.01,0.37-0.01,0.56c0,0.47,0.11-0.29,0.01-0.02c-0.11,0.32-0.14,0.67-0.25,0.99c-0.09,0.27-0.21,0.46-0.03,0.1
			c-0.09,0.17-0.16,0.34-0.26,0.5c-0.09,0.16-0.19,0.32-0.29,0.48c-0.08,0.13-0.46,0.54-0.06,0.09c-0.23,0.26-0.46,0.5-0.71,0.74
			c-0.21,0.2-0.26,0.2,0,0.02c-0.15,0.11-0.3,0.21-0.46,0.31c-0.16,0.1-0.32,0.18-0.49,0.27c-0.52,0.28,0.48-0.13-0.09,0.03
			c-0.36,0.1-0.71,0.2-1.09,0.25c-1.3,0.19-2.13,1.9-1.75,3.08c0.46,1.42,1.68,1.95,3.08,1.75c4.2-0.61,7.37-4.82,7.41-8.95
			c0.04-4.73-3.9-8.01-7.76-9.98c-1.16-0.59-2.77-0.34-3.42,0.9C134.45,157.87,134.71,159.51,135.95,160.15L135.95,160.15z"/>
	</g>
</g>
<g>
	<g>
		<path class="st1" d="M131.34,168.26c-0.01-0.01-0.01-0.02-0.02-0.03c0.08,0.2,0.17,0.4,0.25,0.6c-0.01-0.01-0.01-0.03-0.01-0.04
			c0.03,0.22,0.06,0.44,0.09,0.66c0-0.01,0-0.02,0-0.03c-0.03,0.22-0.06,0.44-0.09,0.66c0-0.01,0-0.02,0.01-0.03
			c-0.08,0.2-0.17,0.4-0.25,0.6c0-0.01,0.01-0.02,0.02-0.03c-0.13,0.17-0.26,0.34-0.39,0.51c0.01-0.01,0.02-0.02,0.03-0.03
			c-0.17,0.13-0.34,0.26-0.51,0.39c0.02-0.01,0.03-0.02,0.05-0.03c-0.2,0.08-0.4,0.17-0.6,0.25c0.03-0.01,0.06-0.02,0.1-0.03
			c-0.22,0.03-0.44,0.06-0.66,0.09c0.04-0.01,0.09-0.01,0.14,0c-0.22-0.03-0.44-0.06-0.66-0.09c0.03,0,0.07,0.01,0.1,0.03
			c-0.2-0.08-0.4-0.17-0.6-0.25c0.02,0.01,0.04,0.02,0.05,0.03c-0.17-0.13-0.34-0.26-0.51-0.39c0.01,0.01,0.02,0.02,0.03,0.03
			c-0.13-0.17-0.26-0.34-0.39-0.51c0.01,0.01,0.01,0.02,0.02,0.03c-0.08-0.2-0.17-0.4-0.25-0.6c0,0.01,0.01,0.02,0.01,0.03
			c-0.03-0.22-0.06-0.44-0.09-0.66c0,0.01,0,0.02,0,0.03c0.03-0.22,0.06-0.44,0.09-0.66c0,0.01-0.01,0.03-0.01,0.04
			c0.08-0.2,0.17-0.4,0.25-0.6c-0.01,0.01-0.01,0.03-0.02,0.04c-0.18,0.29-0.28,0.6-0.3,0.93c-0.07,0.33-0.06,0.66,0.04,1
			c0.08,0.33,0.23,0.61,0.45,0.85c0.18,0.27,0.41,0.49,0.7,0.64c0.2,0.08,0.4,0.17,0.6,0.25c0.44,0.12,0.89,0.12,1.33,0
			c0.2-0.08,0.4-0.17,0.6-0.25c0.38-0.22,0.67-0.52,0.9-0.9c0-0.01,0.01-0.02,0.01-0.02c0,0,0-0.01,0.01-0.01
			c0.02-0.05,0.23-0.54,0.25-0.6c0,0,0-0.01,0-0.01c0-0.01,0-0.01,0.01-0.02c0,0,0-0.01,0-0.01c0-0.01,0.09-0.66,0.09-0.67
			c0,0,0,0,0-0.01c0-0.01,0-0.01,0-0.02c0-0.03-0.08-0.64-0.09-0.67c0,0,0-0.01,0-0.01c0,0,0-0.01,0-0.01c0,0,0,0,0,0
			c0-0.01-0.25-0.59-0.25-0.6c0-0.01-0.01-0.01-0.01-0.02c0,0,0-0.01-0.01-0.01c-0.02-0.03-0.37-0.48-0.39-0.51
			c0-0.01-0.01-0.01-0.01-0.01c-0.17-0.15-0.34-0.3-0.54-0.41c-0.01,0-0.01-0.01-0.02-0.01c-0.2-0.1-0.41-0.18-0.62-0.26
			c-0.02-0.01-0.03-0.01-0.05-0.01c-0.12-0.03-0.29-0.04-0.38-0.05c-0.1-0.01-0.26-0.04-0.38-0.05c-0.02,0-0.04,0-0.05,0
			c-0.01,0-0.02,0-0.03,0c0,0,0,0-0.01,0c-0.14,0.02-0.52,0.07-0.67,0.09c0,0-0.01,0-0.01,0c-0.02,0-0.03,0.01-0.05,0.01
			c-0.01,0-0.01,0-0.02,0.01c0,0-0.01,0-0.01,0c-0.03,0.01-0.57,0.24-0.6,0.25c0,0,0,0-0.01,0c-0.01,0.01-0.03,0.01-0.04,0.02
			c0,0,0,0,0,0c-0.01,0.01-0.5,0.39-0.51,0.39c0,0-0.01,0-0.01,0.01c-0.01,0-0.01,0.01-0.01,0.01c-0.39,0.43-0.36,0.42-0.54,0.84
			c-0.17,0.41-0.2,0.44-0.22,1c0,0.11,0.06,0.47,0.05,0.35c-0.01-0.04,0.02,0.25,0.05,0.36c0,0,0,0.01,0,0.01c0,0,0,0,0,0.01
			c0.02,0.06,0.23,0.54,0.25,0.6c0,0.01,0.01,0.02,0.02,0.03c0.16,0.29,0.37,0.53,0.64,0.7c0.24,0.22,0.52,0.37,0.85,0.45
			c0.33,0.1,0.66,0.12,1,0.04c0.33-0.02,0.64-0.11,0.93-0.3c0.17-0.13,0.34-0.26,0.51-0.39c0.31-0.31,0.52-0.68,0.64-1.1
			c0.03-0.22,0.06-0.44,0.09-0.66C131.68,169.07,131.57,168.65,131.34,168.26L131.34,168.26z"/>
	</g>
</g>
<g>
	<g>
		<path class="st1" d="M285.41-188.78c0-0.33,0-0.65,0-0.98c0.01-0.34-0.06-0.67-0.22-0.96c-0.1-0.31-0.27-0.58-0.52-0.8
			c-0.23-0.24-0.49-0.42-0.8-0.52c-0.3-0.16-0.62-0.23-0.96-0.22c-0.22,0.03-0.44,0.06-0.66,0.09c-0.42,0.12-0.79,0.33-1.1,0.64
			c-0.13,0.17-0.26,0.34-0.39,0.51c-0.23,0.39-0.34,0.81-0.34,1.26c0,0.33,0,0.65,0,0.98c-0.01,0.34,0.06,0.67,0.22,0.96
			c0.1,0.31,0.27,0.58,0.52,0.8c0.23,0.24,0.49,0.42,0.8,0.52c0.3,0.16,0.62,0.23,0.96,0.22c0.22-0.03,0.44-0.06,0.66-0.09
			c0.42-0.12,0.79-0.33,1.1-0.64c0.13-0.17,0.26-0.34,0.39-0.51C285.3-187.91,285.41-188.33,285.41-188.78L285.41-188.78z"/>
	</g>
</g>
</svg>
